<svg width="280" height="48" viewBox="0 0 280 48" fill="none" xmlns="http://www.w3.org/2000/svg">
<path d="M26.8222 2.325V10.63C26.8222 12.28 25.6489 12.995 23.3022 12.775L22.8072 6.505L11.6422 6.12V19.43L21.4872 18.275C21.8906 20.035 21.9089 21.85 21.5422 23.72L11.6422 23.17V36.095L16.7022 36.425C16.9222 38.8083 16.0972 40 14.2272 40H0.752246C0.752246 40 0.752246 39.8533 0.752246 39.56C0.752246 37.5433 1.55891 36.4617 3.17225 36.315L4.76725 36.205V6.23L0.807246 5.9C0.697246 5.68 0.71558 5.185 0.862246 4.415C1.19225 3.02166 1.99891 2.325 3.28225 2.325H26.8222ZM55.7686 37.525C55.7686 39.725 54.3386 40.825 51.4786 40.825C48.6186 40.825 46.7669 39.8717 45.9236 37.965C43.6136 39.8717 41.0652 40.825 38.2786 40.825C35.4919 40.825 33.2919 40.1467 31.6786 38.79C30.1019 37.3967 29.3136 35.5083 29.3136 33.125C29.3136 30.705 30.2486 28.725 32.1186 27.185C33.9886 25.645 36.9402 24.875 40.9736 24.875C42.5502 24.875 44.0536 24.985 45.4836 25.205V22.785C45.4836 20.255 45.0619 18.4583 44.2186 17.395C43.4119 16.3317 42.2936 15.8 40.8636 15.8C39.4336 15.8 38.2786 16.2583 37.3986 17.175C36.5552 18.0917 36.1336 19.3383 36.1336 20.915C34.6669 21.0617 33.4386 20.8417 32.4486 20.255C31.4952 19.6317 31.0186 18.6967 31.0186 17.45C31.0186 15.69 31.9352 14.2417 33.7686 13.105C35.6019 11.9683 37.9669 11.4 40.8636 11.4C48.4169 11.4 52.1936 15.0667 52.1936 22.4V37.085L55.7686 37.525ZM45.4836 29.33C44.1636 28.8533 42.7702 28.615 41.3036 28.615C39.8736 28.615 38.6819 28.9633 37.7286 29.66C36.7752 30.32 36.2986 31.2733 36.2986 32.52C36.2986 35.0867 37.6186 36.37 40.2586 36.37C42.1286 36.37 43.8702 35.8383 45.4836 34.775V29.33ZM67.8402 14.205C70.0769 12.335 72.6802 11.4 75.6502 11.4C78.6202 11.4 81.1869 12.4817 83.3502 14.645C85.5135 16.7717 86.6319 20.1817 86.7052 24.875C86.7785 29.5683 85.6419 33.4 83.2952 36.37C80.9852 39.34 77.5752 40.825 73.0652 40.825C71.0485 40.825 69.3069 40.5133 67.8402 39.89L61.1302 37.8V5.515L58.9852 5.295C57.4819 5.14833 56.8035 4.01166 56.9502 1.885L67.8402 0.674998V14.205ZM73.5052 36.37C77.6485 36.37 79.7202 32.9417 79.7202 26.085C79.7202 22.9317 79.1702 20.4933 78.0702 18.77C77.0069 17.0467 75.4852 16.185 73.5052 16.185C71.5252 16.185 69.6369 17.01 67.8402 18.66V34.17C69.6002 35.6367 71.4885 36.37 73.5052 36.37ZM100.89 16.24C101.77 15.0667 103.017 13.9667 104.63 12.94C106.28 11.9133 107.692 11.4 108.865 11.4C110.075 11.4 111.084 11.785 111.89 12.555C112.697 13.325 113.1 14.6083 113.1 16.405C113.1 18.165 112.495 19.5767 111.285 20.64C110.662 21.1167 109.617 21.2633 108.15 21.08C108.15 19.87 108.04 18.9533 107.82 18.33C107.6 17.67 107.362 17.285 107.105 17.175C106.849 17.0283 106.5 16.955 106.06 16.955C104.227 16.955 102.577 18.1467 101.11 20.53V36.095L105.565 36.425C105.785 38.8083 104.96 40 103.09 40H90.3855C90.3855 40 90.3855 39.8533 90.3855 39.56C90.3855 37.5433 91.1922 36.4617 92.8055 36.315L94.4005 36.205V16.515L91.9805 16.24C90.8438 16.13 90.2755 15.03 90.2755 12.94L100.23 11.675L100.725 16.24H100.89ZM127.25 40H114.985V39.56C114.985 37.5433 115.792 36.4617 117.405 36.315L119.11 36.205V16.24L116.965 16.02C115.462 15.8733 114.783 14.7367 114.93 12.61L125.82 11.4V36.095L129.725 36.425C129.945 38.8083 129.12 40 127.25 40ZM126.095 4.855C126.095 5.99166 125.71 6.96333 124.94 7.77C124.17 8.54 123.198 8.925 122.025 8.925C120.888 8.925 119.917 8.54 119.11 7.77C118.34 6.96333 117.955 5.99166 117.955 4.855C117.955 3.71833 118.34 2.765 119.11 1.995C119.917 1.18833 120.888 0.784997 122.025 0.784997C123.162 0.784997 124.115 1.18833 124.885 1.995C125.692 2.765 126.095 3.71833 126.095 4.855ZM163.349 42.97C164.302 42.97 165.237 42.6767 166.154 42.09C166.447 42.4567 166.594 43.1167 166.594 44.07C166.594 45.06 166.117 45.9217 165.164 46.655C164.247 47.3883 163.092 47.755 161.699 47.755C160.305 47.755 158.399 47.26 155.979 46.27C153.559 45.28 151.652 44.4 150.259 43.63C148.865 42.86 146.959 41.7783 144.539 40.385C140.762 39.4683 137.847 37.3967 135.794 34.17C133.74 30.9067 132.714 26.7083 132.714 21.575C132.714 15.2683 134.29 10.355 137.444 6.835C140.597 3.27833 144.85 1.5 150.204 1.5C155.557 1.5 159.645 3.205 162.469 6.615C165.329 9.98833 166.759 14.5717 166.759 20.365C166.759 26.1583 165.53 30.7783 163.074 34.225C160.617 37.635 157.152 39.725 152.679 40.495C157.372 42.145 160.929 42.97 163.349 42.97ZM139.864 20.915C139.864 25.9383 140.67 29.77 142.284 32.41C143.934 35.05 146.335 36.3883 149.489 36.425C152.825 36.3883 155.337 35.105 157.024 32.575C158.747 30.0083 159.609 26.2317 159.609 21.245C159.609 16.2583 158.765 12.4633 157.079 9.86C155.429 7.22 152.972 5.9 149.709 5.9C143.145 5.9 139.864 10.905 139.864 20.915ZM186.308 15.69C186.308 13.38 187.115 12.225 188.728 12.225H197.308V36.315H198.518C199.765 36.3517 200.388 37.5067 200.388 39.78L192.578 40.55L191.423 37.47C188.82 39.7067 186.125 40.825 183.338 40.825C180.588 40.825 178.223 39.89 176.243 38.02C174.263 36.1133 173.273 33.1983 173.273 29.275V16.13H169.258V15.69C169.258 13.38 170.065 12.225 171.678 12.225H179.983V29.55C179.983 31.8233 180.423 33.4367 181.303 34.39C182.183 35.3433 183.54 35.82 185.373 35.82C187.207 35.82 188.948 35.1967 190.598 33.95V16.13H186.308V15.69ZM221.046 18.55C220.019 16.6067 218.552 15.635 216.646 15.635C214.739 15.635 213.254 16.5883 212.191 18.495C211.164 20.4017 210.651 23.005 210.651 26.305C210.651 29.5683 211.164 32.1167 212.191 33.95C213.254 35.7467 214.739 36.645 216.646 36.645C218.552 36.645 220.019 35.765 221.046 34.005C222.109 32.2083 222.641 29.6783 222.641 26.415C222.641 23.115 222.109 20.4933 221.046 18.55ZM203.666 26.58C203.666 21.8867 204.821 18.1833 207.131 15.47C209.477 12.7567 212.722 11.4 216.866 11.4C221.009 11.4 224.162 12.7017 226.326 15.305C228.526 17.9083 229.626 21.52 229.626 26.14C229.626 30.7233 228.452 34.3167 226.106 36.92C223.759 39.5233 220.477 40.825 216.261 40.825C212.081 40.825 208.927 39.615 206.801 37.195C204.711 34.775 203.666 31.2367 203.666 26.58ZM242.99 16.075V31.31C242.99 34.28 243.944 35.765 245.85 35.765C247.244 35.765 248.399 35.5817 249.315 35.215C250.269 34.8483 251.277 34.225 252.34 33.345C252.524 33.345 252.762 33.5833 253.055 34.06C253.349 34.5367 253.495 35.05 253.495 35.6C253.495 37.03 252.487 38.2583 250.47 39.285C248.454 40.3117 246.492 40.825 244.585 40.825C242.679 40.825 241.175 40.55 240.075 40C238.975 39.4867 238.15 38.7167 237.6 37.69C236.72 36.0033 236.28 33.7667 236.28 30.98V16.075H231.715C231.715 13.5083 232.614 12.225 234.41 12.225H236.28V5.185L242.99 4.47V12.225H252.89C252.964 12.775 252.909 13.3983 252.725 14.095C252.395 15.415 251.552 16.075 250.195 16.075H242.99ZM263.019 26.525V27.13C263.019 30.1 263.551 32.3183 264.614 33.785C265.714 35.215 267.584 35.93 270.224 35.93C272.901 35.93 275.522 34.9217 278.089 32.905C278.822 33.455 279.189 34.3167 279.189 35.49C279.189 36.6267 278.162 37.8 276.109 39.01C274.092 40.22 271.562 40.825 268.519 40.825C264.559 40.825 261.479 39.67 259.279 37.36C257.116 35.0133 256.034 31.475 256.034 26.745C256.034 21.9783 257.207 18.2383 259.554 15.525C261.937 12.775 265.201 11.4 269.344 11.4C272.864 11.4 275.486 12.5 277.209 14.7C278.969 16.9 279.812 19.7967 279.739 23.39V26.525H263.019ZM268.739 15.8C265.732 15.8 263.917 18.11 263.294 22.73H273.304C273.231 20.2367 272.809 18.4583 272.039 17.395C271.269 16.3317 270.169 15.8 268.739 15.8Z" fill="#8A9A5B"/>
</svg>
